<svg id="cheesecake" enable-background="new 0 0 300 300" height="512" viewBox="0 0 300 300" width="512" xmlns="http://www.w3.org/2000/svg"><g><circle cx="146.365" cy="52.972" fill="#4c241d" r="4.276"/><circle cx="157.359" cy="156.045" fill="#edebdc" r="92"/><g fill="#4c241d"><path d="m53.359 64.045c-2.209 0-4-1.791-4-4v-8c0-2.209 1.791-4 4-4s4 1.791 4 4v8c0 2.209-1.791 4-4 4z"/><path d="m53.359 88.045c-2.209 0-4-1.791-4-4v-8c0-2.209 1.791-4 4-4s4 1.791 4 4v8c0 2.209-1.791 4-4 4z"/><path d="m45.359 72.045h-8c-2.209 0-4-1.791-4-4s1.791-4 4-4h8c2.209 0 4 1.791 4 4s-1.791 4-4 4z"/><path d="m69.359 72.045h-8c-2.209 0-4-1.791-4-4s1.791-4 4-4h8c2.209 0 4 1.791 4 4s-1.791 4-4 4z"/><path d="m239.359 128.045c-7.719 0-14-6.281-14-14s6.281-14 14-14 14 6.281 14 14-6.281 14-14 14zm0-20c-3.309 0-6 2.691-6 6s2.691 6 6 6 6-2.691 6-6-2.691-6-6-6z"/><circle cx="262.365" cy="176.972" r="4.276"/></g><g><path d="m233.359 155.511v92.444l-172-23.111v-92.444z" fill="#ffec95"/><path d="m233.359 251.955c-.178 0-.355-.012-.533-.035l-172-23.111c-1.984-.268-3.467-1.961-3.467-3.965v-92.444c0-1.154.498-2.252 1.367-3.012.867-.758 2.023-1.102 3.166-.953l172 23.111c1.984.268 3.467 1.961 3.467 3.965v92.443c0 1.154-.498 2.252-1.367 3.012-.733.641-1.67.989-2.633.989zm-168-30.609 164 22.035v-84.371l-164-22.035z" fill="#4c241d"/></g><g><path d="m61.359 201.733 172 23.111v23.111l-172-23.111z" fill="#bf7e68"/><path d="m233.359 251.955c-.178 0-.355-.012-.533-.035l-172-23.111c-1.984-.268-3.467-1.961-3.467-3.965v-23.111c0-1.154.498-2.252 1.367-3.012.867-.758 2.023-1.107 3.166-.953l172 23.111c1.984.268 3.467 1.961 3.467 3.965v23.111c0 1.154-.498 2.252-1.367 3.012-.733.64-1.67.988-2.633.988zm-168-30.609 164 22.035v-15.039l-164-22.035z" fill="#4c241d"/></g><g><path d="m233.359 155.511-97.622-55.466-74.378 32.355 72 9.674v19.567c0 3.76 2.568 7.033 6.22 7.927 5.142 1.26 10.104-2.633 10.104-7.927v20.365c0 3.475 2.288 6.535 5.621 7.518 5.021 1.48 10.054-2.283 10.054-7.518v-35.632z" fill="#ffded5"/><path d="m157.554 193.852c-1.125 0-2.262-.162-3.381-.492-5-1.473-8.49-6.143-8.49-11.354v-8.93c-2.23.82-4.674.963-7.057.377-5.457-1.336-9.268-6.193-9.268-11.812v-16.068l-68.533-9.207c-1.779-.24-3.182-1.635-3.428-3.412-.248-1.779.719-3.504 2.365-4.221l74.379-32.355c1.15-.502 2.475-.432 3.572.189l97.621 55.467c1.664.947 2.426 2.941 1.814 4.756-.611 1.816-2.396 2.951-4.324 2.688l-63.467-8.527v31.057c0 3.768-1.73 7.225-4.748 9.48-2.082 1.557-4.541 2.364-7.055 2.364zm-3.871-32.211v20.365c0 1.689 1.131 3.203 2.752 3.682 1.168.338 2.406.119 3.385-.607.979-.732 1.539-1.854 1.539-3.074v-35.631c0-1.154.498-2.252 1.367-3.012.867-.758 2.033-1.102 3.166-.953l47.559 6.391-77.951-44.292-59.391 25.836 57.783 7.764c1.984.268 3.467 1.961 3.467 3.965v19.566c0 1.922 1.305 3.586 3.17 4.043 1.252.301 2.553.023 3.561-.77 1.014-.793 1.594-1.986 1.594-3.273 0-2.209 1.791-4 4-4s3.999 1.791 3.999 4z" fill="#4c241d"/></g><g><path d="m108.207 109.464c7.267 9.524 23.012 9.725 23.012 9.725s3.963-15.24-3.304-24.764-23.012-9.725-23.012-9.725-3.963 15.24 3.304 24.764z" fill="#77a052"/><path d="m131.218 123.189c-.018 0-.033 0-.051 0-.723-.01-17.787-.352-26.141-11.299-8.354-10.947-4.178-27.496-3.996-28.195.463-1.783 1.994-3.059 3.922-2.994.723.01 17.789.352 26.143 11.299 8.352 10.945 4.176 27.496 3.994 28.195-.458 1.766-2.05 2.994-3.871 2.994zm-19.832-16.15c4.148 5.436 12.061 7.252 16.555 7.854.604-4.49.943-12.604-3.205-18.041-4.148-5.436-12.061-7.252-16.557-7.854-.603 4.49-.941 12.602 3.207 18.041z" fill="#4c241d"/></g><g><path d="m150.394 103.354c.009-.197.059-.383.059-.583 0-7.232-5.863-13.094-13.094-13.094s-13.094 5.862-13.094 13.094c0 .2.05.386.059.583-3.836 1.336-6.606 4.946-6.606 9.238 0 5.424 4.397 9.821 9.821 9.821h19.641c5.424 0 9.821-4.397 9.821-9.821-.001-4.291-2.771-7.901-6.607-9.238z" fill="#f96e43"/><path d="m147.179 126.412h-19.641c-7.621 0-13.82-6.199-13.82-13.82 0-4.867 2.586-9.307 6.658-11.777.975-8.506 8.219-15.137 16.982-15.137s16.008 6.631 16.982 15.137c4.072 2.471 6.658 6.91 6.658 11.777.002 7.621-6.198 13.82-13.819 13.82zm-18.91-23.644c.02 0 .041.191.049.389.088 1.771-1.002 3.391-2.678 3.975-2.346.818-3.922 3.012-3.922 5.461 0 3.209 2.611 5.82 5.82 5.82h19.641c3.209 0 5.82-2.611 5.82-5.82 0-2.449-1.576-4.643-3.922-5.461-1.676-.584-2.766-2.203-2.678-3.975.006-.121.045-.502.062-.621-.01-4.777-4.09-8.857-9.104-8.857s-9.094 4.08-9.094 9.094c.004-.003.004-.005.006-.005z" fill="#4c241d"/></g></g></svg>