<?xml version="1.0" encoding="iso-8859-1"?>
<!-- Generator: Adobe Illustrator 19.0.0, SVG Export Plug-In . SVG Version: 6.00 Build 0)  -->
<svg version="1.1" id="Capa_1" xmlns="http://www.w3.org/2000/svg" xmlns:xlink="http://www.w3.org/1999/xlink" x="0px" y="0px"
	 viewBox="0 0 511.734 511.734" style="enable-background:new 0 0 511.734 511.734;" xml:space="preserve">
<path style="fill:#656D78;" d="M499.74,12.337H371.806c-4.396,0-7.996,3.6-7.996,7.996v55.971v231.879
	c0,4.396,3.6,7.996,7.996,7.996H499.74c4.396,0,7.996-3.6,7.996-7.996V76.304V20.333C507.736,15.937,504.137,12.337,499.74,12.337z
	 M435.773,148.266c-8.878,0-15.992-7.199-15.992-15.991s7.114-15.992,15.992-15.992c8.792,0,15.992,7.2,15.992,15.992
	S444.565,148.266,435.773,148.266z"/>
<g style="opacity:0.2;">
	<path style="fill:#FFFFFF;" d="M483.748,268.205h-95.949c-2.21,0-3.998,1.787-3.998,3.997s1.788,3.998,3.998,3.998h95.949
		c2.21,0,3.998-1.788,3.998-3.998S485.958,268.205,483.748,268.205z"/>
	<path style="fill:#FFFFFF;" d="M483.748,292.191h-95.949c-2.21,0-3.998,1.789-3.998,3.998c0,2.21,1.788,3.998,3.998,3.998h95.949
		c2.21,0,3.998-1.788,3.998-3.998C487.746,293.98,485.958,292.191,483.748,292.191z"/>
	<path style="fill:#FFFFFF;" d="M483.748,244.217h-95.949c-2.21,0-3.998,1.788-3.998,3.998s1.788,3.998,3.998,3.998h95.949
		c2.21,0,3.998-1.788,3.998-3.998S485.958,244.217,483.748,244.217z"/>
	<path style="fill:#FFFFFF;" d="M483.748,220.229h-95.949c-2.21,0-3.998,1.788-3.998,3.998s1.788,3.998,3.998,3.998h95.949
		c2.21,0,3.998-1.788,3.998-3.998S485.958,220.229,483.748,220.229z"/>
</g>
<g style="opacity:0.2;">
	<path style="fill:#FFFFFF;" d="M371.806,308.183V76.304V20.333c0-4.396,3.6-7.996,7.996-7.996h-7.996
		c-4.396,0-7.996,3.6-7.996,7.996v55.971v231.879c0,4.396,3.6,7.996,7.996,7.996h7.996
		C375.406,316.18,371.806,312.58,371.806,308.183z"/>
</g>
<g style="opacity:0.2;">
	<path d="M499.74,308.183V76.304V20.333c0-4.396-3.6-7.996-7.996-7.996h7.996c4.396,0,7.996,3.6,7.996,7.996v55.971v231.879
		c0,4.396-3.6,7.996-7.996,7.996h-7.996C496.14,316.18,499.74,312.58,499.74,308.183z"/>
</g>
<polygon style="fill:#CCD1D9;" points="209.188,260.271 171.91,260.271 134.633,260.271 121.475,316.242 171.91,316.242 
	222.345,316.242 "/>
<g>
	<path style="fill:#E6E9ED;" d="M339.823,228.069v16.147c0,8.792-7.199,15.992-15.991,15.992H211.811h-79.802H19.989
		c-8.792,0-15.991-7.2-15.991-15.992v-16.147H339.823z"/>
	<path style="fill:#E6E9ED;" d="M323.832,212.233V28.329H19.989v183.904L323.832,212.233L323.832,212.233z M339.823,28.329v199.74
		H3.998V28.329c0-8.792,7.199-15.992,15.991-15.992h303.843C332.624,12.337,339.823,19.537,339.823,28.329z"/>
</g>
<path style="fill:#FFFFFF;" d="M11.993,244.217V228.07V28.329c0-8.792,7.2-15.992,15.992-15.992h-7.996
	c-8.792,0-15.991,7.2-15.991,15.992v199.74v16.147c0,8.792,7.199,15.992,15.991,15.992h7.996
	C19.193,260.209,11.993,253.009,11.993,244.217z"/>
<g style="opacity:0.2;">
	<path d="M331.827,244.217V228.07V28.329c0-8.792-7.199-15.992-15.991-15.992h7.996c8.792,0,15.991,7.2,15.991,15.992v199.74v16.147
		c0,8.792-7.199,15.992-15.991,15.992h-7.996C324.628,260.209,331.827,253.009,331.827,244.217z"/>
</g>
<rect x="19.987" y="28.329" style="fill:#5D9CEC;" width="303.84" height="183.9"/>
<g>
	<path style="fill:#3A3847;" d="M436.008,136.273c-2.202,0-4.029-1.788-4.029-3.998s1.749-3.998,3.951-3.998h0.078
		c2.218,0,3.998,1.788,3.998,3.998C440.006,134.485,438.225,136.273,436.008,136.273z"/>
	<path style="fill:#3A3847;" d="M404.024,136.273c-2.202,0-4.029-1.788-4.029-3.998s1.749-3.998,3.951-3.998h0.078
		c2.218,0,3.998,1.788,3.998,3.998C408.022,134.485,406.242,136.273,404.024,136.273z"/>
	<path style="fill:#3A3847;" d="M483.982,64.31c-2.201,0-4.029-1.788-4.029-3.998s1.75-3.998,3.951-3.998h0.078
		c2.218,0,3.998,1.788,3.998,3.998S486.2,64.31,483.982,64.31z"/>
	<path style="fill:#3A3847;" d="M483.982,32.327c-2.201,0-4.029-1.788-4.029-3.998s1.75-3.998,3.951-3.998h0.078
		c2.218,0,3.998,1.788,3.998,3.998S486.2,32.327,483.982,32.327z"/>
	<path style="fill:#3A3847;" d="M467.991,136.273c-2.202,0-4.029-1.788-4.029-3.998s1.749-3.998,3.951-3.998h0.078
		c2.218,0,3.998,1.788,3.998,3.998C471.989,134.485,470.209,136.273,467.991,136.273z"/>
	<path style="fill:#3A3847;" d="M483.982,136.273c-2.201,0-4.029-1.788-4.029-3.998s1.75-3.998,3.951-3.998h0.078
		c2.218,0,3.998,1.788,3.998,3.998C487.98,134.485,486.2,136.273,483.982,136.273z"/>
	<path style="fill:#3A3847;" d="M388.032,136.273c-2.202,0-4.028-1.788-4.028-3.998s1.748-3.998,3.951-3.998h0.077
		c2.218,0,3.998,1.788,3.998,3.998C392.03,134.485,390.25,136.273,388.032,136.273z"/>
	<path style="fill:#3A3847;" d="M172.148,248.215c-2.206,0-4.037-1.788-4.037-3.998s1.749-3.998,3.958-3.998h0.078
		c2.21,0,3.998,1.788,3.998,3.998S174.358,248.215,172.148,248.215z"/>
</g>
<path style="fill:#5D9CEC;" d="M435.773,116.283c8.792,0,15.992,7.2,15.992,15.992s-7.2,15.991-15.992,15.991
	c-8.878,0-15.992-7.199-15.992-15.991C419.781,123.483,426.895,116.283,435.773,116.283z"/>
<g style="opacity:0.3;">
	<path style="fill:#FFFFFF;" d="M427.777,132.275c0-7.41,5.076-13.634,11.979-15.422c-1.281-0.336-2.601-0.57-3.982-0.57
		c-8.878,0-15.992,7.2-15.992,15.992s7.114,15.991,15.992,15.991c1.382,0,2.701-0.234,3.982-0.57
		C432.853,145.909,427.777,139.685,427.777,132.275z"/>
</g>
<g style="opacity:0.2;">
	<path d="M443.769,132.275c0,7.41-5.076,13.633-11.979,15.421c1.281,0.335,2.601,0.57,3.982,0.57
		c8.878,0,15.992-7.199,15.992-15.991s-7.114-15.992-15.992-15.992c-1.382,0-2.701,0.234-3.982,0.57
		C438.693,118.641,443.769,124.865,443.769,132.275z"/>
</g>
<g style="opacity:0.2;">
	<rect x="403.787" y="188.247" width="23.987" height="12"/>
</g>
<g style="opacity:0.2;">
	<rect x="443.767" y="188.247" width="23.987" height="12"/>
</g>
<g style="opacity:0.3;">
	<polygon style="fill:#FFFFFF;" points="113.097,212.233 154.482,212.233 203.753,28.329 162.368,28.329 	"/>
</g>
<g style="opacity:0.3;">
	<polygon style="fill:#FFFFFF;" points="179.313,212.233 228.584,28.329 212.03,28.329 162.759,212.233 	"/>
</g>
<g style="opacity:0.2;">
	<polygon points="132.766,268.205 211.054,268.205 209.188,260.271 171.91,260.271 134.633,260.271 	"/>
</g>
<g style="opacity:0.7;">
	<polygon style="fill:#FFFFFF;" points="132.766,268.205 121.475,316.242 129.471,316.242 140.763,268.205 	"/>
</g>
<g style="opacity:0.2;">
	<polygon points="211.054,268.205 222.345,316.242 214.349,316.242 203.058,268.205 	"/>
</g>
<path style="fill:#FFCE54;" d="M390.836,453.686c1.038,4.317-1.601,8.636-5.911,9.675c-4.248,1.038-8.558-1.602-9.604-5.919
	c-1.03-4.318,1.608-8.551,5.841-9.675h0.078C385.479,446.806,389.797,449.446,390.836,453.686z"/>
<g>
	<path style="fill:#3A3847;" d="M375.594,436.476c-5.513,0-10.283-3.779-11.596-9.198c-1.546-6.442,2.437-12.946,8.871-14.501
		c6.34-1.522,12.867,2.53,14.414,8.848c0.757,3.146,0.25,6.371-1.422,9.104c-1.67,2.741-4.317,4.661-7.449,5.419
		C377.491,436.367,376.539,436.476,375.594,436.476z M375.664,420.437c-0.313,0-0.617,0.039-0.922,0.109
		c-2.154,0.523-3.482,2.702-2.967,4.857c0.516,2.123,2.607,3.467,4.779,2.967c2.146-0.516,3.482-2.701,2.959-4.856
		C379.084,421.742,377.46,420.437,375.664,420.437z"/>
	<path style="fill:#3A3847;" d="M344.515,443.918c-5.535,0-10.314-3.787-11.618-9.206c-1.546-6.45,2.429-12.946,8.862-14.501
		c6.668-1.507,12.876,2.593,14.422,8.848c1.539,6.449-2.287,12.806-8.698,14.5c-0.164,0.039-0.336,0.078-0.508,0.102
		C346.164,443.832,345.344,443.918,344.515,443.918z M344.461,427.902c-0.296,0-0.593,0.031-0.882,0.094
		c-2.101,0.508-3.428,2.687-2.905,4.842c0.508,2.116,2.647,3.482,4.756,2.967c0.078-0.016,0.164-0.031,0.25-0.047
		c2.03-0.664,3.232-2.732,2.732-4.81C347.975,429.199,346.32,427.902,344.461,427.902z"/>
</g>
<path style="fill:#FFCE54;" d="M359.734,461.12c1.039,4.317-1.601,8.636-5.918,9.675c-4.318,1.038-8.559-1.602-9.597-5.911
	c-1.039-4.326,1.601-8.637,5.919-9.683C354.456,454.248,358.688,456.888,359.734,461.12z"/>
<g>
	<path style="fill:#ED5565;" d="M383.402,422.569c1.038,4.318-1.601,8.636-5.911,9.675c-4.248,1.039-8.558-1.601-9.604-5.919
		c-1.03-4.317,1.608-8.558,5.841-9.675h0.078C378.046,415.69,382.363,418.33,383.402,422.569z"/>
	<path style="fill:#ED5565;" d="M352.301,430.003c1.039,4.318-1.601,8.637-5.918,9.675c-4.318,1.047-8.559-1.593-9.597-5.919
		c-1.039-4.31,1.601-8.636,5.919-9.667C347.022,423.124,351.255,425.763,352.301,430.003z"/>
</g>
<g>
	<path style="fill:#AAB2BD;" d="M353.816,470.795c4.317-1.039,6.957-5.357,5.918-9.675c-1.046-4.232-5.278-6.872-9.596-5.919
		l31.022-7.434c-4.232,1.124-6.871,5.356-5.841,9.675c1.047,4.317,5.356,6.957,9.604,5.919L353.816,470.795z"/>
	<path style="fill:#AAB2BD;" d="M367.887,426.341c1.047,4.311,5.278,6.95,9.597,5.919l-31.022,7.434
		c4.231-1.124,6.871-5.356,5.84-9.675c-1.046-4.239-5.356-6.879-9.604-5.919l31.108-7.441
		C369.487,417.705,366.848,422.023,367.887,426.341z"/>
	<path style="fill:#AAB2BD;" d="M251.869,419.782c13.274,0,23.987,10.713,23.987,23.987c0,13.196-10.713,23.987-23.987,23.987
		s-23.988-10.791-23.988-23.987C227.881,430.495,238.595,419.782,251.869,419.782z"/>
</g>
<g style="opacity:0.5;">
	<path style="fill:#FFFFFF;" d="M235.877,443.769c0-11.9,8.637-21.676,19.99-23.582c-1.312-0.219-2.624-0.405-3.998-0.405
		c-13.274,0-23.988,10.713-23.988,23.987c0,13.196,10.713,23.987,23.988,23.987c1.374,0,2.686-0.188,3.998-0.405
		C244.513,465.43,235.877,455.599,235.877,443.769z"/>
</g>
<g style="opacity:0.2;">
	<path d="M267.86,443.769c0-11.9-8.636-21.676-19.989-23.582c1.312-0.219,2.624-0.405,3.998-0.405
		c13.274,0,23.987,10.713,23.987,23.987c0,13.196-10.713,23.987-23.987,23.987c-1.375,0-2.687-0.188-3.998-0.405
		C259.224,465.43,267.86,455.599,267.86,443.769z"/>
</g>
<path style="fill:#656D78;" d="M346.461,439.693l31.022-7.434c4.318-1.047,6.957-5.356,5.919-9.683
	c-1.039-4.231-5.278-6.949-9.597-5.919l-31.108,7.441c-4.311,1.039-6.95,5.357-5.911,9.675c1.038,4.318,5.356,6.958,9.597,5.919
	h0.078V439.693z M381.161,447.767l-31.022,7.434c-4.318,1.046-6.958,5.356-5.919,9.683c1.038,4.31,5.278,6.949,9.597,5.911
	l31.108-7.434c4.311-1.039,6.949-5.357,5.911-9.675c-1.039-4.24-5.356-6.88-9.597-5.919L381.161,447.767L381.161,447.767z
	 M251.869,467.757c13.274,0,23.987-10.791,23.987-23.987c0-13.274-10.713-23.987-23.987-23.987s-23.988,10.713-23.988,23.987
	C227.881,456.966,238.595,467.757,251.869,467.757z M324.628,483.749h-33.576c-10.073,9.839-23.909,15.991-39.183,15.991
	c-30.945,0-55.971-25.111-55.971-55.971c0-30.945,25.025-55.971,55.971-55.971h51.973h59.969c30.945,0,55.971,25.025,55.971,55.971
	c0,30.859-25.025,55.971-55.971,55.971C348.537,499.74,334.701,493.588,324.628,483.749z"/>
<g style="opacity:0.3;">
	<path style="fill:#FFFFFF;" d="M203.894,443.769c0-30.945,25.026-55.971,55.971-55.971h-7.996
		c-30.945,0-55.971,25.025-55.971,55.971c0,30.859,25.025,55.971,55.971,55.971c1.358,0,2.686-0.109,4.014-0.203
		C226.804,497.491,203.894,473.293,203.894,443.769z"/>
</g>
<g style="opacity:0.2;">
	<path d="M411.786,443.769c0-30.945-25.026-55.971-55.972-55.971h7.996c30.945,0,55.971,25.025,55.971,55.971
		c0,30.859-25.025,55.971-55.971,55.971c-1.358,0-2.686-0.109-4.014-0.203C388.876,497.491,411.786,473.293,411.786,443.769z"/>
</g>
<g>
	<path style="fill:#3A3847;" d="M435.773,151.921c-11.025,0-19.99-8.968-19.99-19.989s8.965-19.99,19.99-19.99
		s19.989,8.968,19.989,19.99S446.799,151.921,435.773,151.921z M435.773,119.937c-6.613,0-11.994,5.38-11.994,11.994
		s5.381,11.994,11.994,11.994s11.994-5.38,11.994-11.994S442.387,119.937,435.773,119.937z"/>
	<path style="fill:#3A3847;" d="M436.008,135.93c-2.202,0-4.029-1.788-4.029-3.998s1.749-3.998,3.951-3.998h0.078
		c2.218,0,3.998,1.788,3.998,3.998S438.225,135.93,436.008,135.93z"/>
	<path style="fill:#3A3847;" d="M404.024,135.93c-2.202,0-4.029-1.788-4.029-3.998s1.749-3.998,3.951-3.998h0.078
		c2.218,0,3.998,1.788,3.998,3.998S406.242,135.93,404.024,135.93z"/>
	<path style="fill:#3A3847;" d="M483.982,63.967c-2.201,0-4.029-1.788-4.029-3.998c0-2.209,1.75-3.998,3.951-3.998h0.078
		c2.218,0,3.998,1.789,3.998,3.998C487.98,62.179,486.2,63.967,483.982,63.967z"/>
	<path style="fill:#3A3847;" d="M483.982,31.983c-2.201,0-4.029-1.788-4.029-3.998c0-2.209,1.75-3.998,3.951-3.998h0.078
		c2.218,0,3.998,1.788,3.998,3.998C487.98,30.195,486.2,31.983,483.982,31.983z"/>
	<path style="fill:#3A3847;" d="M467.991,135.93c-2.202,0-4.029-1.788-4.029-3.998s1.749-3.998,3.951-3.998h0.078
		c2.218,0,3.998,1.788,3.998,3.998S470.209,135.93,467.991,135.93z"/>
	<path style="fill:#3A3847;" d="M483.982,135.93c-2.201,0-4.029-1.788-4.029-3.998s1.75-3.998,3.951-3.998h0.078
		c2.218,0,3.998,1.788,3.998,3.998S486.2,135.93,483.982,135.93z"/>
	<path style="fill:#3A3847;" d="M388.032,135.93c-2.202,0-4.028-1.788-4.028-3.998s1.748-3.998,3.951-3.998h0.077
		c2.218,0,3.998,1.788,3.998,3.998S390.25,135.93,388.032,135.93z"/>
	<path style="fill:#3A3847;" d="M172.152,247.871c-2.206,0-4.037-1.788-4.037-3.998c0-2.209,1.749-3.998,3.958-3.998h0.078
		c2.21,0,3.998,1.788,3.998,3.998C176.15,246.083,174.362,247.871,172.152,247.871z"/>
	<path style="fill:#3A3847;" d="M339.823,231.755H3.998c-2.21,0-3.998-1.788-3.998-3.998s1.788-3.998,3.998-3.998h335.825
		c2.21,0,3.998,1.788,3.998,3.998S342.033,231.755,339.823,231.755z"/>
	<path style="fill:#3A3847;" d="M123.99,307.715c-0.32,0-0.648-0.039-0.972-0.125c-2.144-0.53-3.448-2.701-2.909-4.841l7.996-31.983
		c0.531-2.147,2.701-3.451,4.845-2.904c2.144,0.53,3.447,2.701,2.909,4.841l-7.996,31.983
		C127.41,306.505,125.782,307.715,123.99,307.715z"/>
	<path style="fill:#3A3847;" d="M219.839,307.715c-1.792,0-3.42-1.21-3.873-3.029l-7.996-31.983
		c-0.539-2.14,0.766-4.311,2.909-4.841c2.127-0.539,4.313,0.757,4.845,2.904l7.996,31.983c0.539,2.14-0.766,4.311-2.909,4.841
		C220.487,307.676,220.159,307.715,219.839,307.715z"/>
	<path style="fill:#3A3847;" d="M243.877,319.834H99.889c-2.21,0-3.998-1.788-3.998-3.998s1.788-3.998,3.998-3.998h143.988
		c2.21,0,3.998,1.788,3.998,3.998S246.087,319.834,243.877,319.834z"/>
	<path style="fill:#3A3847;" d="M323.832,215.888H19.989c-2.209,0-3.998-1.788-3.998-3.998V27.985c0-2.209,1.788-3.998,3.998-3.998
		h303.843c2.209,0,3.998,1.788,3.998,3.998v183.904C327.83,214.099,326.041,215.888,323.832,215.888z M23.987,207.892h295.847
		V31.983H23.987V207.892z"/>
	<path style="fill:#3A3847;" d="M323.832,263.863H19.989C8.968,263.863,0,254.895,0,243.873V27.985
		C0,16.964,8.968,7.996,19.989,7.996h303.843c11.025,0,19.989,8.968,19.989,19.989v215.888
		C343.821,254.895,334.857,263.863,323.832,263.863z M19.989,15.992c-6.613,0-11.993,5.38-11.993,11.993v215.888
		c0,6.614,5.38,11.994,11.993,11.994h303.843c6.613,0,11.993-5.38,11.993-11.994V27.985c0-6.613-5.38-11.993-11.993-11.993H19.989z"
		/>
	<path style="fill:#3A3847;" d="M499.74,319.834H371.806c-6.613,0-11.994-5.38-11.994-11.994V19.99
		c0-6.614,5.381-11.994,11.994-11.994H499.74c6.613,0,11.994,5.38,11.994,11.994v287.85
		C511.734,314.454,506.353,319.834,499.74,319.834z M371.806,15.992c-2.202,0-3.998,1.792-3.998,3.998v287.85
		c0,2.202,1.796,3.998,3.998,3.998H499.74c2.171,0,3.998-1.827,3.998-3.998V19.99c0-2.167-1.827-3.998-3.998-3.998H371.806z"/>
	<path style="fill:#3A3847;" d="M483.748,295.846h-95.949c-2.21,0-3.998-1.788-3.998-3.998s1.788-3.998,3.998-3.998h95.949
		c2.21,0,3.998,1.788,3.998,3.998S485.958,295.846,483.748,295.846z"/>
	<path style="fill:#3A3847;" d="M483.748,271.859h-95.949c-2.21,0-3.998-1.789-3.998-3.998c0-2.21,1.788-3.998,3.998-3.998h95.949
		c2.21,0,3.998,1.788,3.998,3.998C487.746,270.07,485.958,271.859,483.748,271.859z"/>
	<path style="fill:#3A3847;" d="M483.748,247.871h-95.949c-2.21,0-3.998-1.788-3.998-3.998c0-2.209,1.788-3.998,3.998-3.998h95.949
		c2.21,0,3.998,1.788,3.998,3.998S485.958,247.871,483.748,247.871z"/>
	<path style="fill:#3A3847;" d="M483.748,223.884h-95.949c-2.21,0-3.998-1.788-3.998-3.998s1.788-3.998,3.998-3.998h95.949
		c2.21,0,3.998,1.788,3.998,3.998S485.958,223.884,483.748,223.884z"/>
	<path style="fill:#3A3847;" d="M427.777,199.896c-2.209,0-3.998-1.788-3.998-3.998V191.9h-15.991v3.998
		c0,2.21-1.788,3.998-3.998,3.998s-3.998-1.788-3.998-3.998v-7.996c0-2.21,1.788-3.998,3.998-3.998h23.987
		c2.21,0,3.998,1.788,3.998,3.998v7.996C431.775,198.108,429.987,199.896,427.777,199.896z"/>
	<path style="fill:#3A3847;" d="M467.757,199.896c-2.21,0-3.998-1.788-3.998-3.998V191.9h-15.992v3.998
		c0,2.21-1.789,3.998-3.998,3.998c-2.21,0-3.998-1.788-3.998-3.998v-7.996c0-2.21,1.788-3.998,3.998-3.998h23.987
		c2.21,0,3.998,1.788,3.998,3.998v7.996C471.755,198.108,469.967,199.896,467.757,199.896z"/>
	<path style="fill:#3A3847;" d="M491.744,47.975H379.803c-2.21,0-3.998-1.789-3.998-3.998c0-2.21,1.788-3.998,3.998-3.998h111.941
		c2.21,0,3.998,1.788,3.998,3.998C495.742,46.187,493.954,47.975,491.744,47.975z"/>
	<path style="fill:#3A3847;" d="M491.744,79.958H379.803c-2.21,0-3.998-1.788-3.998-3.998s1.788-3.998,3.998-3.998h111.941
		c2.21,0,3.998,1.788,3.998,3.998S493.954,79.958,491.744,79.958z"/>
	<path style="fill:#3A3847;" d="M363.81,391.797H251.869c-2.21,0-3.998-1.789-3.998-3.998c0-2.21,1.788-3.998,3.998-3.998H363.81
		c2.21,0,3.998,1.788,3.998,3.998C367.808,390.008,366.02,391.797,363.81,391.797z"/>
	<path style="fill:#3A3847;" d="M324.636,487.746h-33.592c-2.21,0-3.998-1.787-3.998-3.997s1.788-3.998,3.998-3.998h33.592
		c2.21,0,3.998,1.788,3.998,3.998S326.846,487.746,324.636,487.746z"/>
	<path style="fill:#3A3847;" d="M251.869,503.738c-33.069,0-59.969-26.9-59.969-59.969s26.9-59.969,59.969-59.969
		c2.21,0,3.998,1.788,3.998,3.998c0,2.209-1.788,3.998-3.998,3.998c-28.657,0-51.973,23.315-51.973,51.973
		s23.316,51.973,51.973,51.973c13.68,0,26.604-5.278,36.371-14.852c1.586-1.546,4.115-1.515,5.654,0.063
		c1.546,1.577,1.53,4.107-0.047,5.653C282.572,497.647,267.658,503.738,251.869,503.738z"/>
	<path style="fill:#3A3847;" d="M363.81,503.738c-15.788,0-30.703-6.091-41.979-17.132c-1.576-1.546-1.592-4.076-0.047-5.653
		c1.539-1.577,4.068-1.608,5.654-0.063c9.768,9.573,22.691,14.852,36.371,14.852c28.657,0,51.973-23.315,51.973-51.973
		s-23.315-51.973-51.973-51.973c-2.209,0-3.998-1.789-3.998-3.998c0-2.21,1.789-3.998,3.998-3.998
		c33.069,0,59.969,26.9,59.969,59.969S396.88,503.738,363.81,503.738z"/>
	<path style="fill:#3A3847;" d="M251.869,471.755c-15.43,0-27.985-12.556-27.985-27.985s12.556-27.985,27.985-27.985
		s27.985,12.556,27.985,27.985S267.299,471.755,251.869,471.755z M251.869,423.779c-11.021,0-19.99,8.965-19.99,19.99
		s8.968,19.989,19.99,19.989c11.022,0,19.989-8.964,19.989-19.989S262.89,423.779,251.869,423.779z"/>
	<path style="fill:#3A3847;" d="M251.869,455.763c-2.21,0-3.998-1.789-3.998-3.998v-15.992c0-2.21,1.788-3.998,3.998-3.998
		s3.998,1.788,3.998,3.998v15.992C255.867,453.974,254.079,455.763,251.869,455.763z"/>
	<path style="fill:#3A3847;" d="M259.865,447.767h-16.398c-2.209,0-3.998-1.788-3.998-3.998s1.788-3.998,3.998-3.998h16.398
		c2.209,0,3.998,1.788,3.998,3.998S262.074,447.767,259.865,447.767z"/>
	<path style="fill:#3A3847;" d="M344.523,443.926c-5.559,0-10.354-3.779-11.649-9.198c-0.75-3.124-0.234-6.341,1.437-9.073
		c1.679-2.726,4.326-4.639,7.434-5.389c6.371-1.53,12.938,2.546,14.461,8.871c0.75,3.123,0.234,6.348-1.444,9.081
		c-1.679,2.726-4.318,4.638-7.441,5.38C346.414,443.816,345.469,443.926,344.523,443.926z M344.539,427.933
		c-0.312,0-0.624,0.031-0.937,0.109c-1.03,0.25-1.921,0.891-2.476,1.796c-0.555,0.906-0.726,1.983-0.477,3.015
		c0.5,2.123,2.687,3.467,4.811,2.967c1.047-0.25,1.937-0.882,2.491-1.796c0.554-0.905,0.726-1.983,0.476-3.014
		C347.991,429.199,346.398,427.933,344.539,427.933z"/>
	<path style="fill:#3A3847;" d="M375.633,436.492c-5.575,0-10.361-3.787-11.65-9.214c-0.75-3.108-0.234-6.325,1.438-9.058
		c1.678-2.726,4.325-4.639,7.434-5.389c6.371-1.507,12.945,2.538,14.461,8.871c1.53,6.434-2.452,12.915-8.871,14.461
		C377.522,436.383,376.57,436.492,375.633,436.492z M375.664,420.5c-0.313,0-0.633,0.031-0.938,0.109
		c-1.046,0.25-1.936,0.891-2.49,1.796c-0.555,0.906-0.727,1.983-0.477,3.015c0.5,2.123,2.67,3.467,4.811,2.967
		c2.146-0.516,3.482-2.678,2.967-4.825C379.099,421.765,377.507,420.5,375.664,420.5z"/>
	<path style="fill:#3A3847;" d="M351.957,475.034c-5.559,0-10.354-3.779-11.649-9.198c-1.53-6.434,2.452-12.915,8.87-14.461
		c6.372-1.507,12.954,2.545,14.461,8.886c0.75,3.108,0.234,6.325-1.437,9.058c-1.679,2.726-4.325,4.639-7.434,5.389
		C353.847,474.925,352.902,475.034,351.957,475.034z M351.988,459.043c-0.312,0-0.632,0.031-0.937,0.109
		c-2.147,0.516-3.482,2.678-2.968,4.825c0.5,2.108,2.687,3.467,4.811,2.952c1.047-0.25,1.937-0.891,2.491-1.797
		c0.554-0.905,0.726-1.982,0.476-3.014C355.432,460.3,353.84,459.043,351.988,459.043z"/>
	<path style="fill:#3A3847;" d="M383.082,467.6c-5.567,0-10.369-3.779-11.666-9.198c-0.75-3.123-0.234-6.348,1.445-9.081
		c1.678-2.726,4.317-4.638,7.441-5.38c6.309-1.515,12.93,2.537,14.445,8.87c0.75,3.124,0.234,6.341-1.445,9.073
		c-1.678,2.726-4.317,4.639-7.426,5.389C384.956,467.491,384.019,467.6,383.082,467.6z M383.097,451.609
		c-0.313,0-0.633,0.031-0.938,0.109c-1.046,0.25-1.936,0.882-2.49,1.796c-0.555,0.905-0.727,1.983-0.477,3.014
		c0.508,2.124,2.694,3.49,4.826,2.968c1.03-0.25,1.912-0.891,2.467-1.797c0.563-0.905,0.734-1.982,0.484-3.014
		C386.533,452.874,384.94,451.609,383.097,451.609z"/>
	<path style="fill:#3A3847;" d="M342.681,428.152c-1.813,0-3.452-1.233-3.889-3.068c-0.516-2.147,0.812-4.303,2.959-4.818
		l31.109-7.434c2.162-0.499,4.31,0.813,4.817,2.96c0.515,2.147-0.813,4.302-2.96,4.817l-31.108,7.434
		C343.298,428.121,342.985,428.152,342.681,428.152z"/>
	<path style="fill:#3A3847;" d="M346.398,443.707c-1.813,0-3.452-1.233-3.889-3.068c-0.516-2.147,0.812-4.303,2.959-4.818
		l31.109-7.434c2.162-0.5,4.302,0.813,4.817,2.959c0.515,2.148-0.813,4.303-2.96,4.818l-31.108,7.434
		C347.014,443.676,346.702,443.707,346.398,443.707z"/>
	<path style="fill:#3A3847;" d="M350.115,459.262c-1.813,0-3.451-1.234-3.889-3.069c-0.516-2.147,0.812-4.302,2.959-4.817
		l31.109-7.434c2.146-0.484,4.302,0.813,4.817,2.959c0.516,2.147-0.813,4.303-2.96,4.818l-31.108,7.434
		C350.731,459.23,350.42,459.262,350.115,459.262z"/>
	<path style="fill:#3A3847;" d="M353.832,474.816c-1.813,0-3.451-1.234-3.889-3.069c-0.516-2.147,0.812-4.303,2.959-4.817
		l31.109-7.434c2.146-0.508,4.31,0.812,4.817,2.959c0.516,2.147-0.813,4.303-2.96,4.818l-31.108,7.434
		C354.448,474.785,354.137,474.816,353.832,474.816z"/>
	<path style="fill:#3A3847;" d="M299.844,463.759h-7.996c-2.209,0-3.997-1.788-3.997-3.997c0-2.211,1.788-3.998,3.997-3.998h7.996
		c2.21,0,3.998,1.787,3.998,3.998C303.842,461.971,302.054,463.759,299.844,463.759z"/>
	<path style="fill:#3A3847;" d="M323.832,463.759h-7.996c-2.21,0-3.998-1.788-3.998-3.997c0-2.211,1.788-3.998,3.998-3.998h7.996
		c2.209,0,3.998,1.787,3.998,3.998C327.83,461.971,326.041,463.759,323.832,463.759z"/>
	<path style="fill:#3A3847;" d="M307.84,383.801c-2.21,0-3.998-1.788-3.998-3.998c0-11.025,8.965-19.989,19.99-19.989
		c2.209,0,3.998,1.788,3.998,3.997c0,2.21-1.789,3.998-3.998,3.998c-6.614,0-11.994,5.381-11.994,11.994
		C311.838,382.013,310.05,383.801,307.84,383.801z"/>
	<path style="fill:#3A3847;" d="M331.827,367.808c-2.21,0-3.997-1.788-3.997-3.998c0-2.209,1.787-3.997,3.997-3.997
		c6.614,0,11.994-5.38,11.994-11.994s-5.38-11.993-11.994-11.993c-2.21,0-3.997-1.789-3.997-3.998c0-2.21,1.787-3.998,3.997-3.998
		c11.026,0,19.99,8.964,19.99,19.989S342.853,367.808,331.827,367.808z"/>
	<path style="fill:#3A3847;" d="M331.827,367.808h-7.995c-2.21,0-3.998-1.788-3.998-3.998c0-2.209,1.788-3.997,3.998-3.997h7.995
		c2.21,0,3.998,1.788,3.998,3.997C335.825,366.02,334.037,367.808,331.827,367.808z"/>
	<path style="fill:#3A3847;" d="M291.052,335.826c-11.025,0-19.989-8.965-19.989-19.99s8.964-19.989,19.989-19.989
		c2.21,0,3.998,1.788,3.998,3.997c0,2.21-1.788,3.998-3.998,3.998c-6.614,0-11.994,5.381-11.994,11.994s5.38,11.994,11.994,11.994
		c2.21,0,3.998,1.788,3.998,3.998C295.05,334.037,293.262,335.826,291.052,335.826z"/>
	<path style="fill:#3A3847;" d="M355.018,303.842h-63.967c-2.21,0-3.998-1.788-3.998-3.998c0-2.209,1.788-3.997,3.998-3.997h63.967
		c2.21,0,3.998,1.788,3.998,3.997C359.016,302.054,357.228,303.842,355.018,303.842z"/>
	<path style="fill:#3A3847;" d="M331.811,335.826h-40.775c-2.21,0-3.998-1.789-3.998-3.998c0-2.21,1.788-3.998,3.998-3.998h40.775
		c2.21,0,3.998,1.788,3.998,3.998C335.809,334.037,334.021,335.826,331.811,335.826z"/>
</g>
<g>
</g>
<g>
</g>
<g>
</g>
<g>
</g>
<g>
</g>
<g>
</g>
<g>
</g>
<g>
</g>
<g>
</g>
<g>
</g>
<g>
</g>
<g>
</g>
<g>
</g>
<g>
</g>
<g>
</g>
</svg>
