<svg id="Flat" height="512" viewBox="0 0 512 512" width="512" xmlns="http://www.w3.org/2000/svg"><g><rect fill="#fa5d3f" height="48" rx="10" width="464" x="24" y="80"/><path d="m444 40h-20v128h20a20 20 0 0 0 20-20v-88a20 20 0 0 0 -20-20z" fill="#c85aed"/><rect fill="#8d5aed" height="160" rx="20" transform="matrix(-1 0 0 -1 784 208)" width="64" x="360" y="24"/><path d="m68 40h20v128h-20a20 20 0 0 1 -20-20v-88a20 20 0 0 1 20-20z" fill="#c85aed"/><rect fill="#8d5aed" height="160" rx="20" width="64" x="88" y="24"/><path d="m328 136v-46.3875a20 20 0 0 0 -7.5061-15.6174l-32.4939-25.9951-86.5406 19.9709a20 20 0 0 0 -15.3658 21.8247l13.9064 118.2044-45.71 167.6028a30 30 0 0 0 .27 16.7161l25.0962 81.5628a20 20 0 0 0 19.1153 14.1183h82.8133a20 20 0 0 0 18.9737-13.6754l17.3578-52.0736a30.0008 30.0008 0 0 0 1.3561-12.8l-23.2724-209.451z" fill="#ffd4cf"/><path d="m215.1553 451.5776-14.3106-7.1552 27.7769-55.5542a32.1663 32.1663 0 0 0 3.3784-14.3111v-86.5571h16v86.5571a48.2407 48.2407 0 0 1 -5.0679 21.4668z" fill="#fbb8b0"/></g></svg>