<svg height="512" viewBox="0 0 128 128" width="512" xmlns="http://www.w3.org/2000/svg"><g><path d="m5.75 35.5h116.5a4 4 0 0 1 4 4v19.3a18 18 0 0 1 -18 18h-88.5a18 18 0 0 1 -18-18v-19.3a4 4 0 0 1 4-4z" fill="#bf6015"/><path d="m108.25 76.8h-88.5a18 18 0 0 1 -18-18v56.08a4 4 0 0 0 4 4h116.5a4 4 0 0 0 4-4v-56.08a18 18 0 0 1 -18 18z" fill="#fedb41"/><path d="m28.187 76.8h12.75a0 0 0 0 1 0 0v11.95a3 3 0 0 1 -3 3h-6.75a3 3 0 0 1 -3-3v-11.95a0 0 0 0 1 0 0z" fill="#994c0f"/><path d="m90.062 76.8h6.75a3 3 0 0 1 3 3v11.95a0 0 0 0 1 0 0h-12.75a0 0 0 0 1 0 0v-11.95a3 3 0 0 1 3-3z" fill="#994c0f" transform="matrix(-1 0 0 -1 186.875 168.55)"/><path d="m35.264 35.5 2.122-10.385a10.035 10.035 0 0 1 9.8-8h33.63a10.035 10.035 0 0 1 9.8 8l2.12 10.385h8.164l-2.448-11.984a18.064 18.064 0 0 0 -17.636-14.396h-33.632a18.064 18.064 0 0 0 -17.636 14.4l-2.448 11.98z" fill="#0d70b2"/></g></svg>